<?xml version="1.0" encoding="utf-8"?>
<!-- Generator: Adobe Illustrator 24.0.3, SVG Export Plug-In . SVG Version: 6.00 Build 0)  -->
<svg version="1.1" id="Layer_1" xmlns="http://www.w3.org/2000/svg" xmlns:xlink="http://www.w3.org/1999/xlink" x="0px" y="0px"
	 viewBox="0 0 560 113.622" style="enable-background:new 0 0 560 288;" xml:space="preserve">
<style type="text/css">
	.st0{fill:#FFD47F;}
	.st1{fill:#FFE07F;}
	.st2{fill:#FFF2D4;}
</style>
<g>
	<path class="st0" d="M32.1,73.8H5.4c-3,0-5.4-2.4-5.4-5.4V45.2c0-3,2.4-5.4,5.4-5.4h26.7c3,0,5.4,2.4,5.4,5.4v23.2
		C37.5,71.4,35.1,73.8,32.1,73.8z"/>
	<path class="st1" d="M539.8,103.4H128.3c-11.1,0-20.1-9-20.1-20.1v-53c0-11.1,9-20.1,20.1-20.1h411.6c11.1,0,20.1,9,20.1,20.1v53.1
		C559.9,94.4,550.9,103.4,539.8,103.4z"/>
	<path class="st1" d="M121.8,16.9L27,0.1c-2.8-0.5-5.4,1.7-5.4,4.6v33.6c0,2.9,2.6,5.1,5.4,4.6L121.8,26
		C126.9,25.1,126.9,17.8,121.8,16.9z"/>
	<path class="st0" d="M539.8,103.4H128.3c-11.1,0-20.1-9-20.1-20.1V59.9c0-11.1,9-20.1,20.1-20.1h411.6c11.1,0,20.1,9,20.1,20.1
		v23.5C559.9,94.4,550.9,103.4,539.8,103.4z"/>
	<path class="st1" d="M121.8,87.6L27,70.8c-2.8-0.5-5.4,1.7-5.4,4.6V109c0,2.9,2.6,5.1,5.4,4.6l94.8-16.8
		C126.9,95.8,126.9,88.5,121.8,87.6z"/>
	<path class="st1" d="M539.8,82.2H128.3c-11.1,0-20.1-9-20.1-20.1v-9.3c0-11.1,9-20.1,20.1-20.1h411.6c11.1,0,20.1,9,20.1,20.1v9.3
		C559.9,73.2,550.9,82.2,539.8,82.2z"/>
	<path class="st2" d="M168.3,88.2h-30.6c-2.3,0-4.2-1.9-4.2-4.2v-6.2c0-2.3,1.9-4.2,4.2-4.2h30.6c2.3,0,4.2,1.9,4.2,4.2V84
		C172.5,86.3,170.6,88.2,168.3,88.2z"/>
	<path class="st2" d="M194.7,88.2h-12.6c-2.3,0-4.2-1.9-4.2-4.2v-6.2c0-2.3,1.9-4.2,4.2-4.2h12.6c2.3,0,4.2,1.9,4.2,4.2V84
		C198.9,86.3,197,88.2,194.7,88.2z"/>
	<path class="st2" d="M393.6,37H274.5c-2.3,0-4.2-1.9-4.2-4.2v-6.2c0-2.3,1.9-4.2,4.2-4.2h119.2c2.3,0,4.2,1.9,4.2,4.2v6.2
		C397.8,35.1,395.9,37,393.6,37z"/>
	<path class="st2" d="M324,47h-72.8c-2.3,0-4.2-1.9-4.2-4.2v-6.2c0-2.3,1.9-4.2,4.2-4.2H324c2.3,0,4.2,1.9,4.2,4.2v6.2
		C328.3,45.1,326.4,47,324,47z"/>
	<rect x="21.6" y="21.5" class="st1" width="104.3" height="70.7"/>
</g>
</svg>
